<svg id="DARK" xmlns="http://www.w3.org/2000/svg" xmlns:xlink="http://www.w3.org/1999/xlink" viewBox="0 0 1116.99 273.66"><defs><style>.cls-1{fill:url(#linear-gradient);}.cls-2{fill:url(#linear-gradient-2);}.cls-3{fill:url(#linear-gradient-3);}.cls-4{fill:url(#linear-gradient-4);}.cls-5{fill:#fff;}.cls-6{fill:url(#linear-gradient-5);}.cls-7{fill:url(#linear-gradient-6);}.cls-8{fill:url(#linear-gradient-20);}</style><linearGradient id="linear-gradient" x1="0.66" y1="53.05" x2="244.54" y2="53.05" gradientUnits="userSpaceOnUse"><stop offset="0" stop-color="#fc516e"/><stop offset="1" stop-color="#ffa64a"/></linearGradient><linearGradient id="linear-gradient-2" x1="125.42" y1="120.1" x2="18.76" y2="185.85" gradientUnits="userSpaceOnUse"><stop offset="0.01" stop-color="#fc576b"/><stop offset="1" stop-color="#e52974"/></linearGradient><linearGradient id="linear-gradient-3" x1="127.73" y1="160.76" x2="244.41" y2="160.76" gradientUnits="userSpaceOnUse"><stop offset="0" stop-color="#fc516e"/><stop offset="0.99" stop-color="#ffa64a"/></linearGradient><linearGradient id="linear-gradient-4" x1="170.4" y1="64.76" x2="90.1" y2="36.42" gradientUnits="userSpaceOnUse"><stop offset="0" stop-color="#fff"/><stop offset="1" stop-color="#fdcce5"/></linearGradient><linearGradient id="linear-gradient-5" x1="82.83" y1="159.56" x2="38.59" y2="113.89" gradientTransform="matrix(1.02, -0.04, 0, 1, -4.07, 7.49)" xlink:href="#linear-gradient-4"/><linearGradient id="linear-gradient-6" x1="269.65" y1="133.33" x2="1116.98" y2="133.33" gradientTransform="matrix(1, 0, 0, 1, 0.04, -0.15)" gradientUnits="userSpaceOnUse"><stop offset="0.03" stop-color="#005c82"/><stop offset="0.53" stop-color="#002636"/><stop offset="1" stop-color="#245e7d"/></linearGradient><linearGradient id="linear-gradient-20" x1="263.84" y1="125.59" x2="1111.17" y2="125.59" gradientTransform="matrix(1, 0, 0, 1, 0.04, -0.15)" gradientUnits="userSpaceOnUse"><stop offset="0.03" stop-color="#fff"/><stop offset="1" stop-color="#fff"/></linearGradient></defs><title>EHS_logo_banner</title><g id="box"><path class="cls-1" d="M239.07,45.21,119.07.16c-.36,0-.71,0-1.07,0-1.24,0-2.46-.07-3.66-.19L1.11,41.62C1,42.27.83,42.9.66,43.53l127,62.56,115.39-57c-.72-.88-1.39-1.8-2-2.73C240.37,46,239.72,45.61,239.07,45.21Z"/><path class="cls-2" d="M127.73,273.4V99.59L1,42.06A28,28,0,0,1,0,45.4V188.08c.43.68.85,1.37,1.23,2.08l125.63,83.1C127.15,273.31,127.45,273.34,127.73,273.4Z"/><path class="cls-3" d="M244.13,50.06c-.69-.71-1.36-1.44-2-2.2h0L127.73,99.91V273.4l.89.19c.46,0,.9.05,1.36.07.85-.23,1.72-.42,2.59-.59l110.52-73.6c.41-.7.85-1.4,1.32-2.08V50.78C244.31,50.54,244.22,50.3,244.13,50.06Z"/><path class="cls-4" d="M136.06,34.74l-9.8,4,41.21,16.93-16.14,7.5-41.24-17.8-10.9,4.47L150,72.5,130.18,82,49.12,43.6l73-27.28,81.08,30.74-16.48,7.88Z"/><path class="cls-5" d="M199.52,171.12v-10l-42.85,25.58V119.8l69.15-33.46V111l-38.7,20.55v10.21l38.7-21.24v59.09l-69.15,45.79V197.48Z"/><path class="cls-6" d="M50.27,92.84v35.61l16.38,8.86V100.62l32.83,15.6V223.41L66.65,201.88V165.2l-16.38-9.67v35.61L22.53,173V79.66Z"/></g><g id="text"><path class="cls-7" d="M283.41,97.65h19.2l-13.77,70.81h-19.2Z"/><path class="cls-7" d="M373.73,97.59l-13.94,71.6h-6.46l-26.39-34.67-6.6,34h-19.2L315.09,97h6.54l26.26,34.53,6.6-33.91Z"/><path class="cls-7" d="M401.8,115.17l-2.19,11.46h20.16l-3.08,15.72H396.53l-5.11,26.22H372.23L386.08,97.5h44.11l-3.48,17.66Z"/><path class="cls-7" d="M468,140.88l14.67,27.64h-20.7l-13-27.15-5.28,27.15H424.51l13.68-70.81H462c14.37,0,24.56,9.49,22.05,24.3A23.4,23.4,0,0,1,468,140.88Zm-16.6-12.3,5.09,0c4.7.09,8.18-2.59,8.79-6.67a5.91,5.91,0,0,0-6.1-7.12H454Z"/><path class="cls-7" d="M535,160.28H511l-4.75,8.26H484.17L529,96.84h10.15l17,71.7H536.62Zm-2.72-13.76-3.43-17.31-10,17.31Z"/><path class="cls-7" d="M560,155.41l12.79-11.12c2.85,4.88,7.68,8.09,12.91,8.09,2.55,0,6.37-1.14,7-4.35.88-4.26-4.87-7.51-10.32-10.85-8.39-5.14-14-12.3-11.85-22.41,2.2-10.58,13.18-18.09,25.53-18.09,9.7,0,17.92,5.19,20.81,12.31L604.42,119.7a10.75,10.75,0,0,0-9.53-5.84c-3.34,0-5.62,2-6,4.17-.7,3.64,5.23,6.24,10.1,9.14,9,5.41,14.85,12.35,12.91,22.8-2.15,11.69-12.17,19.55-27.15,19.54C572,169.51,563.6,163.49,560,155.41Z"/><path class="cls-7" d="M673.7,115.33H658L647.6,168.56H628.4l10.34-53.24H623l3.39-17.57,50.73,0Z"/><path class="cls-7" d="M714.91,141l14.66,27.64H708.88l-13-27.15-5.28,27.15H671.45l13.68-70.81H708.9c14.37,0,24.56,9.49,22.05,24.29A23.42,23.42,0,0,1,714.91,141Zm-16.6-12.3,5.09,0c4.7.09,8.17-2.59,8.79-6.67a5.91,5.91,0,0,0-6.11-7.12H701Z"/><path class="cls-7" d="M741.05,141.31l8.49-43.53h19.2l-8.45,43.49c-1.32,6.9,2,11.33,7.51,11.34,6.24,0,9.4-5.67,10.5-11.34l8.45-43.48H806l-8.45,43.53C793.85,160.08,781,170.58,765,170.57,747.1,170.57,738,157.25,741.05,141.31Z"/><path class="cls-7" d="M807.92,132.32c3.83-24.25,25.58-37.51,43.72-36,9.88.84,19,6.12,23.54,14.2L861.47,123c-4-6-8.52-8.61-14-8.61-9.31,0-18.06,7.37-20.21,18s3,19.95,13.92,19.95c5.36,0,10.46-2.37,15.73-6.5l8.38,14.85c-7.55,6.28-17.92,9.49-27.15,9.48C816.34,170.15,804.62,153,807.92,132.32Z"/><path class="cls-7" d="M928.91,115.4H913.18L902.8,168.63H883.61l10.33-53.24H878.21l3.39-17.57,50.74,0Z"/><path class="cls-7" d="M931.24,141.36l8.49-43.53h19.19l-8.44,43.49c-1.32,6.9,2,11.34,7.51,11.34,6.23,0,9.4-5.67,10.5-11.33l8.45-43.49h19.19l-8.44,43.54c-3.65,18.75-16.48,29.25-32.52,29.24C937.29,170.62,928.16,157.31,931.24,141.36Z"/><path class="cls-7" d="M1037.64,141l14.66,27.63h-20.69l-13-27.15-5.28,27.14H994.19l13.68-70.81h23.76c14.37,0,24.56,9.5,22,24.3A23.41,23.41,0,0,1,1037.64,141ZM1021,128.73l5.09.05c4.7.09,8.17-2.59,8.79-6.68a5.92,5.92,0,0,0-6.1-7.12h-5.1Z"/><path class="cls-7" d="M1088.7,115.35l-1.94,9.89h20.17l-3,15.68h-20.16l-2,10.15h24.91l-3.44,17.62h-44.1l13.77-70.82,44.1,0-3.43,17.48Z"/><path class="cls-8" d="M277.6,89.91h19.2L283,160.73H263.84Z"/><path class="cls-8" d="M367.93,89.85,354,161.45h-6.46l-26.39-34.67-6.6,34H295.34l13.94-71.56h6.55l26.26,34.53,6.6-33.91Z"/><path class="cls-8" d="M396,107.43l-2.2,11.46H414l-3.08,15.72H390.72l-5.1,26.22h-19.2l13.86-71.08h44.1l-3.47,17.66Z"/><path class="cls-8" d="M462.15,133.14l14.67,27.64H456.13l-13-27.15-5.28,27.15H418.7L432.38,90h23.77c14.36,0,24.55,9.49,22,24.3A23.4,23.4,0,0,1,462.15,133.14Zm-16.6-12.3,5.1,0c4.7.09,8.17-2.59,8.79-6.67a5.92,5.92,0,0,0-6.11-7.12h-5.1Z"/><path class="cls-8" d="M529.19,152.53h-24l-4.75,8.25H478.36L523.23,89.1h10.15l17,71.7h-19.6Zm-2.72-13.75-3.42-17.31-10,17.31Z"/><path class="cls-8" d="M554.24,147.66,567,136.55c2.86,4.88,7.69,8.09,12.92,8.09,2.54,0,6.37-1.14,7-4.35.88-4.26-4.88-7.51-10.32-10.85-8.39-5.14-14-12.31-11.86-22.41C567,96.44,578,88.94,590.32,88.94c9.71,0,17.92,5.19,20.82,12.31L598.62,112a10.77,10.77,0,0,0-9.54-5.84c-3.33,0-5.62,2-6,4.17-.7,3.64,5.23,6.24,10.11,9.14,9,5.4,14.84,12.35,12.91,22.8-2.16,11.69-12.18,19.55-27.16,19.54C566.23,161.77,557.79,155.75,554.24,147.66Z"/><path class="cls-8" d="M667.9,107.59H652.17l-10.38,53.24h-19.2l10.34-53.24H617.2L620.59,90l50.74,0Z"/><path class="cls-8" d="M709.1,133.21l14.67,27.63H703.08l-13-27.15-5.28,27.14H665.65L679.33,90h23.76c14.37,0,24.56,9.5,22,24.3A23.41,23.41,0,0,1,709.1,133.21ZM692.5,120.9l5.09,0c4.71.09,8.18-2.59,8.79-6.68a5.9,5.9,0,0,0-6.1-7.11h-5.1Z"/><path class="cls-8" d="M735.24,133.57,743.73,90h19.2l-8.45,43.49c-1.31,6.9,2,11.33,7.51,11.33,6.24,0,9.41-5.66,10.51-11.33L780.94,90h19.2l-8.45,43.53c-3.65,18.76-16.48,29.26-32.51,29.25C741.3,162.83,732.16,149.51,735.24,133.57Z"/><path class="cls-8" d="M802.11,124.58c3.83-24.25,25.58-37.51,43.72-36,9.89.84,19,6.11,23.55,14.2l-13.71,12.43c-4-6-8.52-8.62-14-8.62-9.31,0-18,7.38-20.21,18s3,19.94,13.92,20c5.36,0,10.46-2.37,15.73-6.5l8.39,14.85c-7.56,6.28-17.93,9.48-27.15,9.48C810.54,162.41,798.81,145.27,802.11,124.58Z"/><path class="cls-8" d="M923.1,107.66H907.38L897,160.89H877.8l10.34-53.24H872.41l3.39-17.57h50.74Z"/><path class="cls-8" d="M925.43,133.62l8.49-43.53h19.2l-8.45,43.49c-1.32,6.9,2,11.33,7.51,11.34,6.24,0,9.4-5.67,10.5-11.34l8.45-43.48h19.2l-8.45,43.53c-3.65,18.76-16.48,29.26-32.52,29.25C931.48,162.88,922.35,149.56,925.43,133.62Z"/><path class="cls-8" d="M1031.83,133.3l14.67,27.63h-20.69l-13-27.16-5.28,27.15H988.38l13.68-70.82h23.77c14.36,0,24.55,9.5,22,24.3A23.41,23.41,0,0,1,1031.83,133.3ZM1015.23,121l5.1.05c4.7.09,8.17-2.59,8.78-6.68a5.91,5.91,0,0,0-6.1-7.12h-5.1Z"/><path class="cls-8" d="M1082.89,107.61l-1.93,9.88h20.16l-3,15.68h-20.16l-2,10.14h24.91L1097.42,161l-44.11,0,13.77-70.81h44.11l-3.43,17.49Z"/></g></svg>