<svg id="DARK" xmlns="http://www.w3.org/2000/svg" xmlns:xlink="http://www.w3.org/1999/xlink" viewBox="0 0 244.41 273.66"><defs><style>.cls-1{fill:url(#linear-gradient);}.cls-2{fill:url(#linear-gradient-2);}.cls-3{fill:url(#linear-gradient-3);}.cls-4{fill:url(#linear-gradient-4);}.cls-5{fill:#fff;}.cls-6{fill:url(#linear-gradient-5);}</style><linearGradient id="linear-gradient" x1="0.66" y1="53.05" x2="244.54" y2="53.05" gradientUnits="userSpaceOnUse"><stop offset="0" stop-color="#fc516e"/><stop offset="1" stop-color="#ffa64a"/></linearGradient><linearGradient id="linear-gradient-2" x1="125.42" y1="120.1" x2="18.76" y2="185.85" gradientUnits="userSpaceOnUse"><stop offset="0.01" stop-color="#fc576b"/><stop offset="1" stop-color="#e52974"/></linearGradient><linearGradient id="linear-gradient-3" x1="127.73" y1="160.76" x2="244.41" y2="160.76" gradientUnits="userSpaceOnUse"><stop offset="0" stop-color="#fc516e"/><stop offset="0.99" stop-color="#ffa64a"/></linearGradient><linearGradient id="linear-gradient-4" x1="170.4" y1="64.76" x2="90.1" y2="36.42" gradientUnits="userSpaceOnUse"><stop offset="0" stop-color="#fff"/><stop offset="1" stop-color="#fdcce5"/></linearGradient><linearGradient id="linear-gradient-5" x1="82.83" y1="159.56" x2="38.59" y2="113.89" gradientTransform="matrix(1.02, -0.04, 0, 1, -4.07, 7.49)" xlink:href="#linear-gradient-4"/></defs><title>EHS_icon_staging</title><g id="box"><path class="cls-1" d="M239.07,45.21,119.07.16c-.36,0-.71,0-1.07,0-1.24,0-2.46-.07-3.66-.19L1.11,41.62C1,42.27.83,42.9.66,43.53l127,62.56,115.39-57c-.72-.88-1.39-1.8-2-2.73C240.37,46,239.72,45.61,239.07,45.21Z"/><path class="cls-2" d="M127.73,273.4V99.59L1,42.06A28,28,0,0,1,0,45.4V188.08c.43.68.85,1.37,1.23,2.08l125.63,83.1C127.15,273.31,127.45,273.34,127.73,273.4Z"/><path class="cls-3" d="M244.13,50.06c-.69-.71-1.36-1.44-2-2.2h0L127.73,99.91V273.4l.89.19c.46,0,.9.05,1.36.07.85-.23,1.72-.42,2.59-.59l110.52-73.6c.41-.7.85-1.4,1.32-2.08V50.78C244.31,50.54,244.22,50.3,244.13,50.06Z"/><path class="cls-4" d="M136.06,34.74l-9.8,4,41.21,16.93-16.14,7.5-41.24-17.8-10.9,4.47L150,72.5,130.18,82,49.12,43.6l73-27.28,81.08,30.74-16.48,7.88Z"/><path class="cls-5" d="M199.52,171.12v-10l-42.85,25.58V119.8l69.15-33.46V111l-38.7,20.55v10.21l38.7-21.24v59.09l-69.15,45.79V197.48Z"/><path class="cls-6" d="M50.27,92.84v35.61l16.38,8.86V100.62l32.83,15.6V223.41L66.65,201.88V165.2l-16.38-9.67v35.61L22.53,173V79.66Z"/></g></svg>