<svg xmlns="http://www.w3.org/2000/svg" xmlns:xlink="http://www.w3.org/1999/xlink" viewBox="0 0 1116.99 300.66"><defs><style>.cls-1{fill:url(#linear-gradient);}.cls-2{fill:url(#linear-gradient-2);}.cls-3{fill:url(#linear-gradient-3);}.cls-4{fill:url(#linear-gradient-4);}.cls-5{opacity:0.98;fill:url(#linear-gradient-5);}.cls-6{fill:url(#linear-gradient-6);}.cls-7{fill:url(#linear-gradient-7);}.cls-8{fill:url(#linear-gradient-21);}.cls-9{fill:#f57f29;}.cls-10{fill:#e0601f;}.cls-11{fill:#fdb515;}.cls-12{fill:#b3b2b1;}.cls-13{fill:#8b8b8e;}.cls-14{fill:#d2d0ce;}.cls-15{fill:#e09e14;}.cls-16{fill:#ffd600;}.cls-17{fill:#f2b411;}.cls-18,.cls-19,.cls-20{fill:#fff;}.cls-19{font-size:50.54px;}.cls-19,.cls-20{font-family:FrutigerLTPro-Condensed, Frutiger LT Pro;}.cls-20{font-size:55.51px;letter-spacing:-0.07em;}.cls-21{letter-spacing:0em;}</style><linearGradient id="linear-gradient" x1="0.66" y1="53.05" x2="244.54" y2="53.05" gradientUnits="userSpaceOnUse"><stop offset="0" stop-color="#fbb03b"/><stop offset="1" stop-color="#ffa64a"/></linearGradient><linearGradient id="linear-gradient-2" x1="32.89" y1="106.74" x2="105.66" y2="191.9" gradientUnits="userSpaceOnUse"><stop offset="0.01" stop-color="#f7931e"/><stop offset="1" stop-color="#fbb03b"/></linearGradient><linearGradient id="linear-gradient-3" x1="275.58" y1="228.21" x2="144.74" y2="130.66" gradientUnits="userSpaceOnUse"><stop offset="0" stop-color="#fff"/><stop offset="0.99" stop-color="#fbb03b"/></linearGradient><linearGradient id="linear-gradient-4" x1="239.45" y1="183.97" x2="145.77" y2="117.39" gradientUnits="userSpaceOnUse"><stop offset="0"/><stop offset="1" stop-color="#282828"/></linearGradient><linearGradient id="linear-gradient-5" x1="5.88" y1="138.13" x2="146.79" y2="178.39" gradientTransform="matrix(1, -0.03, 0, 1, 0.09, 0.72)" gradientUnits="userSpaceOnUse"><stop offset="0"/><stop offset="1" stop-color="#333"/></linearGradient><linearGradient id="linear-gradient-6" x1="163.26" y1="54.67" x2="98.74" y2="41.77" xlink:href="#linear-gradient-4"/><linearGradient id="linear-gradient-7" x1="269.68" y1="133.34" x2="1117.01" y2="133.34" gradientTransform="matrix(1, 0, 0, 1, 0.01, -0.16)" gradientUnits="userSpaceOnUse"><stop offset="0.03" stop-color="#005c82"/><stop offset="0.53" stop-color="#002636"/><stop offset="1" stop-color="#245e7d"/></linearGradient><linearGradient id="linear-gradient-21" x1="263.87" y1="125.6" x2="1111.2" y2="125.6" gradientTransform="matrix(1, 0, 0, 1, 0.01, -0.16)" gradientUnits="userSpaceOnUse"><stop offset="0.03" stop-color="#fff"/><stop offset="1" stop-color="#fff"/></linearGradient></defs><title>logo_2</title><g id="DARK"><g id="box"><path class="cls-1" d="M239.07,45.21,119.07.16c-.36,0-.71,0-1.07,0-1.24,0-2.46-.07-3.66-.19L1.11,41.62C1,42.27.83,42.9.66,43.53l127,62.56,115.39-57c-.72-.88-1.39-1.8-2-2.73C240.37,46,239.72,45.61,239.07,45.21Z"/><path class="cls-2" d="M128.73,273.4V99.59L2,42.06A28,28,0,0,1,1,45.4V188.08c.43.68.85,1.37,1.23,2.08l125.63,83.1C128.15,273.31,128.45,273.34,128.73,273.4Z"/><path class="cls-3" d="M244.13,50.06c-.69-.71-1.36-1.44-2-2.2h0L127.73,99.91V273.4l.89.19c.46,0,.9.05,1.36.07.85-.23,1.72-.42,2.59-.59l110.52-73.6c.41-.7.85-1.4,1.32-2.08V50.78C244.31,50.54,244.22,50.3,244.13,50.06Z"/><path class="cls-4" d="M201,165.22v-9.1l-39,23.3V118.47L225,88v22.42l-35.25,18.71v9.31L225,119.08v53.83l-63,41.71V189.23Z"/><path class="cls-5" d="M51.4,122.75V135.5l36.48,18.94v21.18L51.4,155.74v13.1L96.16,194v24L23.61,175.17V87l72.55,34.42v23.84Z"/><path class="cls-6" d="M147,26.78,122.9,36.86,137,42.68l24.1-10.4,27,10.56L118.09,75,91,62.54,117.69,51l-14.08-6.08L76.9,56.08,52.25,44.75l70-27.64Z"/></g><g id="text"><path class="cls-7" d="M283.41,97.65h19.2l-13.77,70.81h-19.2Z"/><path class="cls-7" d="M373.73,97.59l-13.94,71.6h-6.46l-26.39-34.67-6.6,34h-19.2L315.09,97h6.54l26.26,34.53,6.6-33.91Z"/><path class="cls-7" d="M401.8,115.17l-2.19,11.46h20.16l-3.08,15.72H396.53l-5.11,26.22H372.23L386.08,97.5h44.11l-3.48,17.66Z"/><path class="cls-7" d="M468,140.88l14.67,27.64h-20.7l-13-27.15-5.28,27.15H424.51l13.68-70.81H462c14.37,0,24.56,9.5,22.05,24.3A23.4,23.4,0,0,1,468,140.88Zm-16.6-12.3,5.09,0c4.7.09,8.18-2.58,8.79-6.67a5.91,5.91,0,0,0-6.1-7.12H454Z"/><path class="cls-7" d="M535,160.28H511l-4.75,8.26H484.17L529,96.84h10.15l17,71.7H536.62Zm-2.72-13.76-3.43-17.31-10,17.31Z"/><path class="cls-7" d="M560,155.41l12.79-11.12c2.85,4.88,7.68,8.09,12.91,8.09,2.55,0,6.37-1.14,7-4.34.88-4.27-4.87-7.52-10.32-10.86-8.39-5.14-14-12.3-11.85-22.41,2.2-10.58,13.18-18.09,25.53-18.09,9.7,0,17.92,5.19,20.81,12.31L604.42,119.7a10.75,10.75,0,0,0-9.53-5.84c-3.34,0-5.62,2-6,4.17-.7,3.64,5.23,6.24,10.1,9.14,9,5.41,14.85,12.35,12.91,22.8-2.15,11.69-12.17,19.55-27.15,19.54C572,169.51,563.6,163.49,560,155.41Z"/><path class="cls-7" d="M673.7,115.33H658L647.6,168.56H628.4l10.34-53.24H623l3.39-17.57,50.73,0Z"/><path class="cls-7" d="M714.91,141l14.66,27.64H708.88l-13-27.15-5.28,27.15H671.45l13.68-70.81H708.9c14.37,0,24.56,9.49,22.05,24.3A23.42,23.42,0,0,1,714.91,141Zm-16.6-12.3,5.09,0c4.7.09,8.17-2.59,8.79-6.67a5.91,5.91,0,0,0-6.11-7.12H701Z"/><path class="cls-7" d="M741.05,141.31l8.49-43.53h19.2l-8.45,43.49c-1.32,6.9,2,11.33,7.51,11.34,6.24,0,9.4-5.67,10.5-11.33l8.45-43.49H806l-8.45,43.53C793.85,160.08,781,170.58,765,170.57,747.1,170.57,738,157.25,741.05,141.31Z"/><path class="cls-7" d="M807.92,132.32c3.83-24.25,25.58-37.51,43.72-36,9.88.84,19,6.12,23.54,14.2L861.47,123c-4-6-8.52-8.61-14-8.61-9.31,0-18.06,7.37-20.21,18s3,19.95,13.92,19.95c5.36,0,10.46-2.37,15.73-6.5l8.38,14.85c-7.55,6.28-17.92,9.49-27.15,9.48C816.34,170.15,804.62,153,807.92,132.32Z"/><path class="cls-7" d="M928.91,115.4H913.18L902.8,168.63H883.61l10.33-53.24H878.21l3.39-17.57,50.74,0Z"/><path class="cls-7" d="M931.24,141.36l8.49-43.53h19.19l-8.44,43.49c-1.32,6.9,2,11.34,7.51,11.34,6.23,0,9.4-5.67,10.5-11.33l8.44-43.49h19.2l-8.44,43.54c-3.66,18.75-16.49,29.25-32.52,29.24C937.29,170.62,928.16,157.31,931.24,141.36Z"/><path class="cls-7" d="M1037.64,141l14.66,27.63h-20.69l-13-27.15-5.28,27.14H994.19l13.68-70.81h23.76c14.37,0,24.56,9.5,22,24.3A23.41,23.41,0,0,1,1037.64,141ZM1021,128.73l5.09.05c4.7.09,8.17-2.59,8.79-6.68a5.91,5.91,0,0,0-6.1-7.11h-5.1Z"/><path class="cls-7" d="M1088.7,115.35l-1.94,9.89h20.17l-3,15.68h-20.16l-2,10.15h24.91l-3.44,17.62h-44.1l13.77-70.82,44.1,0-3.43,17.48Z"/><path class="cls-8" d="M277.6,89.91h19.2L283,160.73H263.84Z"/><path class="cls-8" d="M367.93,89.85,354,161.45h-6.46l-26.39-34.67-6.6,34H295.34l13.94-71.56h6.55l26.26,34.53,6.6-33.91Z"/><path class="cls-8" d="M396,107.43l-2.2,11.46H414l-3.08,15.72H390.72l-5.1,26.22h-19.2l13.86-71.08h44.1l-3.47,17.66Z"/><path class="cls-8" d="M462.15,133.14l14.67,27.64H456.13l-13-27.15-5.28,27.15H418.7L432.38,90h23.77c14.36,0,24.55,9.49,22,24.3A23.4,23.4,0,0,1,462.15,133.14Zm-16.6-12.3,5.1,0c4.7.09,8.17-2.59,8.79-6.67a5.92,5.92,0,0,0-6.11-7.12h-5.1Z"/><path class="cls-8" d="M529.19,152.53h-24l-4.75,8.26H478.36L523.23,89.1h10.15l17,71.7h-19.6Zm-2.72-13.75-3.42-17.31-10,17.31Z"/><path class="cls-8" d="M554.24,147.66,567,136.55c2.86,4.88,7.69,8.09,12.92,8.09,2.54,0,6.37-1.14,7-4.35.88-4.26-4.88-7.51-10.32-10.85-8.39-5.14-14-12.31-11.86-22.41C567,96.45,578,88.94,590.32,88.94c9.71,0,17.92,5.19,20.82,12.31L598.62,112a10.77,10.77,0,0,0-9.54-5.84c-3.33,0-5.62,2-6,4.17-.7,3.64,5.23,6.24,10.11,9.14,9,5.4,14.84,12.35,12.91,22.8-2.16,11.69-12.18,19.55-27.16,19.54C566.23,161.77,557.79,155.75,554.24,147.66Z"/><path class="cls-8" d="M667.9,107.59H652.17l-10.38,53.24h-19.2l10.34-53.24H617.2L620.59,90l50.74,0Z"/><path class="cls-8" d="M709.1,133.21l14.67,27.63H703.08l-13-27.15-5.28,27.14H665.65L679.33,90h23.76c14.37,0,24.56,9.5,22,24.3A23.41,23.41,0,0,1,709.1,133.21ZM692.5,120.9l5.09,0c4.71.09,8.18-2.59,8.79-6.68a5.9,5.9,0,0,0-6.1-7.11h-5.1Z"/><path class="cls-8" d="M735.24,133.57,743.73,90h19.2l-8.45,43.49c-1.31,6.9,2,11.33,7.51,11.33,6.24,0,9.41-5.66,10.51-11.33L780.94,90h19.2l-8.45,43.53c-3.65,18.76-16.48,29.26-32.51,29.25C741.3,162.83,732.16,149.51,735.24,133.57Z"/><path class="cls-8" d="M802.11,124.58c3.83-24.25,25.58-37.51,43.72-36,9.89.84,19,6.11,23.55,14.2l-13.71,12.43c-4-6-8.52-8.61-14-8.62-9.31,0-18,7.38-20.21,18s3,19.94,13.92,20c5.36,0,10.46-2.37,15.73-6.5l8.39,14.85c-7.56,6.28-17.93,9.48-27.15,9.48C810.54,162.41,798.81,145.27,802.11,124.58Z"/><path class="cls-8" d="M923.1,107.66H907.38L897,160.89H877.8l10.34-53.24H872.41l3.39-17.57h50.74Z"/><path class="cls-8" d="M925.43,133.62l8.49-43.53h19.2l-8.45,43.49c-1.32,6.9,2,11.33,7.51,11.34,6.24,0,9.4-5.67,10.5-11.34l8.45-43.48h19.2l-8.45,43.53c-3.65,18.76-16.48,29.26-32.52,29.25C931.48,162.88,922.35,149.56,925.43,133.62Z"/><path class="cls-8" d="M1031.83,133.3l14.67,27.63h-20.69l-13-27.16-5.28,27.15H988.38l13.68-70.82h23.77c14.36,0,24.55,9.5,22,24.3A23.41,23.41,0,0,1,1031.83,133.3ZM1015.23,121l5.1.05c4.7.09,8.17-2.59,8.78-6.68a5.91,5.91,0,0,0-6.1-7.12h-5.1Z"/><path class="cls-8" d="M1082.89,107.61,1081,117.5h20.16l-3,15.68h-20.16l-2,10.14h24.91L1097.42,161l-44.11,0,13.77-70.81h44.11l-3.44,17.49Z"/></g></g><g id="Layer_17" data-name="Layer 17"><path class="cls-9" d="M348.42,254.93c-1.37,5.32-2.73,10.82-4.05,16.41,5.94,3.83,11.75,7.61,17.55,10.85C357.48,273.78,353,264.52,348.42,254.93Z"/><path class="cls-10" d="M348.42,254.93c5.31,3.79,10.49,7.62,15.6,11.17-.7,5.18-1.4,10.56-2.1,16.09C357.48,273.78,353,264.52,348.42,254.93Z"/><path class="cls-10" d="M348.42,254.93c-1.37,5.32-2.73,10.82-4.05,16.41-5.92-3.83-12-7.71-18.05-11.17A137,137,0,0,1,348.42,254.93Z"/><path class="cls-11" d="M348.42,254.93c-5.3-3.78-10.72-7.52-16.2-10.87-2,5.29-4,10.7-5.9,16.11A137,137,0,0,1,348.42,254.93Z"/><path class="cls-9" d="M354.46,233.14q-1.35,4.56-2.72,9.44c4.76,3.82,9.38,7.74,13.89,11.51C362,247.51,358.27,240.43,354.46,233.14Z"/><path class="cls-10" d="M354.46,233.14c4.28,3.86,8.42,7.84,12.43,11.76q-.61,4.46-1.26,9.19C362,247.51,358.27,240.43,354.46,233.14Z"/><path class="cls-11" d="M348.42,254.93c1.1-4.23,2.21-8.36,3.32-12.35,4.76,3.82,9.38,7.74,13.89,11.51A87.5,87.5,0,0,0,348.42,254.93Z"/><path class="cls-9" d="M348.42,254.93c5.31,3.79,10.49,7.62,15.6,11.17q.83-6.19,1.61-12A87.5,87.5,0,0,0,348.42,254.93Z"/><path class="cls-12" d="M354.46,233.14c.75-2.53,1.5-5,2.24-7.33,3.86,3.88,7.58,7.9,11.16,11.9A59.36,59.36,0,0,0,354.46,233.14Z"/><path class="cls-13" d="M354.46,233.14c4.28,3.86,8.42,7.84,12.43,11.76.33-2.47.66-4.87,1-7.19A59.36,59.36,0,0,0,354.46,233.14Z"/><path class="cls-13" d="M354.46,233.14c.75-2.53,1.5-5,2.24-7.33-3.86-3.89-7.86-7.64-12-11.13C348.06,220.87,351.3,227.08,354.46,233.14Z"/><path class="cls-14" d="M354.46,233.14c-4.27-3.86-8.69-7.6-13.2-11,1.15-2.56,2.31-5.05,3.47-7.43C348.06,220.87,351.3,227.08,354.46,233.14Z"/><path class="cls-10" d="M315.8,235.43c-2.57,5.37-5.06,10.78-7.49,16.08a124.83,124.83,0,0,1,18,8.66C322.85,251.69,319.32,243.38,315.8,235.43Z"/><path class="cls-9" d="M315.8,235.43a125.52,125.52,0,0,1,16.42,8.63c-2,5.29-4,10.7-5.9,16.11C322.85,251.69,319.32,243.38,315.8,235.43Z"/><path class="cls-15" d="M315.8,235.43c-2.57,5.37-5.06,10.78-7.49,16.08-5.84-2.17-11.44-3.46-16.31-3.45A75.33,75.33,0,0,1,315.8,235.43Z"/><path class="cls-16" d="M315.8,235.43A58.89,58.89,0,0,0,300.29,231c-2.88,5.77-5.62,11.54-8.29,17.1A75.33,75.33,0,0,1,315.8,235.43Z"/><path class="cls-16" d="M327.51,212.86c-1.83,3.2-3.63,6.51-5.39,9.9a70.06,70.06,0,0,0-14.66-5.53A57.13,57.13,0,0,1,327.51,212.86Z"/><path class="cls-17" d="M327.51,212.86a80,80,0,0,0-13.74-6.42c-2.17,3.49-4.28,7.11-6.31,10.79A57.13,57.13,0,0,1,327.51,212.86Z"/><path class="cls-17" d="M315.8,235.43c2.05-4.28,4.16-8.53,6.32-12.67a70.06,70.06,0,0,0-14.66-5.53C310.2,223,313,229.1,315.8,235.43Z"/><path class="cls-15" d="M315.8,235.43A58.89,58.89,0,0,0,300.29,231c2.29-4.61,4.68-9.21,7.17-13.73C310.2,223,313,229.1,315.8,235.43Z"/><path class="cls-13" d="M327.51,212.86q2.28-4,4.62-7.72a135.09,135.09,0,0,1,12.6,9.54A60.87,60.87,0,0,0,327.51,212.86Z"/><path class="cls-12" d="M327.51,212.86a131.87,131.87,0,0,1,13.75,9.25c1.15-2.56,2.31-5.05,3.47-7.43A60.87,60.87,0,0,0,327.51,212.86Z"/><path class="cls-17" d="M327.51,212.86q2.28-4,4.62-7.72A90.41,90.41,0,0,0,319.32,198C322.06,202.78,324.8,207.76,327.51,212.86Z"/><path class="cls-15" d="M327.51,212.86a80,80,0,0,0-13.74-6.42q2.7-4.37,5.55-8.44C322.06,202.78,324.8,207.76,327.51,212.86Z"/><path class="cls-18" d="M398.62,287a19.2,19.2,0,1,1,19.46-19.25A18.85,18.85,0,0,1,398.62,287Zm0-32.4c-7.38,0-12.52,5.89-12.52,13.15S391.35,281,398.72,281s12.52-5.89,12.52-13.15S406,254.6,398.62,254.6Z"/><path class="cls-18" d="M438,274.43h-7.37v11.93h-6.53V249.24h14.64c8.64,0,14.11,4.88,14.11,12.47C452.87,270.08,446.18,274.43,438,274.43Zm.21-19.25h-7.58v13.37h7.58c4.93,0,8-2.71,8-6.69C446.24,257.46,443.11,255.18,438.23,255.18Z"/><path class="cls-18" d="M474.19,286.36h-6.58V255.29H455.84v-6H486v6H474.19Z"/><path class="cls-18" d="M523.51,270.3c0,11.08-6.26,16.65-16,16.65s-15.8-5.57-15.8-16.34V249.24h6.52v21.11c0,6.89,3.56,10.61,9.39,10.61s9.33-3.5,9.33-10.35V249.24h6.53Z"/><path class="cls-18" d="M548.85,277.24h-.21L537,259.85v26.51h-6.42V249.24h6.95l11.29,17.56,11.3-17.56h7v37.12h-6.53V259.74Z"/><path class="cls-18" d="M574.24,253.65v0a5.61,5.61,0,0,1,5.57-5.61,5.55,5.55,0,0,1,5.57,5.57v0a5.57,5.57,0,1,1-11.14,0Zm10.5,0v0a4.9,4.9,0,0,0-4.93-5,5,5,0,0,0-4.93,5v0a4.93,4.93,0,1,0,9.86,0Zm-7-2.92h2.5c1.15,0,2.08.61,2.08,1.73a1.73,1.73,0,0,1-1.38,1.7l1.57,2.18h-1.12L580,254.26h-1.34v2.05h-.9Zm2.4,2.82c.8,0,1.25-.42,1.25-1s-.48-1-1.25-1h-1.5v2Z"/><text class="cls-19" transform="translate(594.55 281.37)">| </text><text class="cls-20" transform="translate(619.93 286.12)">T<tspan class="cls-21" x="20.54" y="0">echnology</tspan></text></g></svg>